# xmcd CD database file
#
# Track frame offsets:
#	150
#	21670
#	34740
#	53752
#	68825
#	90467
#	108057
#	123792
#
# Disc length: 1888 seconds
#
# Revision: 0
# Processed by: cddbd v1.4PL0 Copyright (c) Steve Scherf et al.
# Submitted via: CDex 1.50beta9
#
DISCID=5e075e08
DTITLE=John Callaghan - Callaghan's Gold
DYEAR=1900
DGENRE=Country
TTITLE0=The Centenary Song
TTITLE1=The Barman's Song
TTITLE2=The Old Miner
TTITLE3=An Ode to Menzies
TTITLE4=The Ballad of Varischetti
TTITLE5=Spread a little Sunshine
TTITLE6=He's a Cowboy
TTITLE7=Come on Australia
EXTD=
EXTT0=
EXTT1=
EXTT2=
EXTT3=
EXTT4=
EXTT5=
EXTT6=
EXTT7=
PLAYORDER=
